<?xml version="1.0" standalone="no"?>
<!DOCTYPE svg PUBLIC "-//W3C//DTD SVG 20010904//EN"
 "http://www.w3.org/TR/2001/REC-SVG-20010904/DTD/svg10.dtd">
<svg version="1.0" xmlns="http://www.w3.org/2000/svg"
 width="512.000000pt" height="512.000000pt" viewBox="0 0 512.000000 512.000000"
 preserveAspectRatio="xMidYMid meet">
<metadata>
Created by potrace 1.14, written by Peter Selinger 2001-2017
</metadata>
<g transform="translate(0.000000,512.000000) scale(0.100000,-0.100000)"
fill="#000000" stroke="none">
<path d="M1699 5105 c-142 -36 -264 -118 -355 -239 -74 -98 -119 -208 -149
-368 -3 -18 -25 -42 -68 -74 -89 -68 -197 -180 -247 -258 -23 -36 -48 -66 -54
-67 -6 0 -144 -2 -306 -2 l-295 -2 0 -2045 0 -2045 1605 -3 1605 -2 -1 836 -1
836 146 212 c81 116 178 256 216 311 74 107 298 431 350 505 17 25 67 97 110
160 43 63 103 149 131 190 29 41 70 100 91 130 21 30 104 151 185 267 176 254
203 299 221 378 15 67 13 184 -4 230 -48 131 -109 203 -250 296 -144 97 -291
123 -431 75 -68 -23 -158 -83 -196 -132 -19 -24 -262 -372 -434 -622 -24 -34
-64 -92 -89 -128 l-46 -65 -1 293 c0 161 -1 300 -1 309 -1 14 -35 15 -303 15
-190 -1 -305 3 -310 9 -5 6 -26 37 -48 70 -46 73 -144 174 -231 241 -77 58
-75 55 -83 114 -8 58 -44 168 -79 236 -75 148 -231 283 -382 330 -71 22 -227
27 -296 9z m251 -221 c181 -71 300 -261 304 -484 1 -45 1 -45 81 -99 157 -106
299 -275 318 -378 l6 -31 -107 -26 c-116 -27 -133 -31 -237 -45 -157 -22 -232
-26 -490 -26 -248 0 -331 4 -455 20 -65 9 -289 54 -333 67 -37 11 -38 13 -32
47 20 108 143 253 313 367 67 46 82 61 83 82 5 253 131 452 323 511 70 21 164
20 226 -5z m2504 -675 c112 -58 207 -152 222 -221 18 -86 -2 -149 -87 -269
l-53 -77 -61 43 c-33 23 -136 95 -230 160 -93 64 -176 123 -184 130 -11 11 -4
26 44 97 32 45 67 91 79 101 72 64 187 79 270 36z m-3679 -330 c3 -3 6 -36 8
-72 l2 -66 45 -16 c25 -9 56 -21 70 -25 37 -14 219 -57 270 -65 25 -4 52 -9
60 -10 112 -20 110 -20 355 -41 70 -6 440 -6 505 0 25 3 81 7 125 11 44 3 87
8 95 10 8 2 40 7 70 10 130 14 471 102 485 125 3 5 7 35 9 69 2 33 6 63 9 68
4 6 218 9 320 4 16 -1 17 -25 17 -357 l0 -355 -471 -682 c-260 -375 -491 -710
-515 -744 l-44 -61 -2 -451 -3 -452 24 6 c24 6 450 166 506 190 17 7 82 31
145 55 181 66 168 56 266 199 l89 129 3 -561 c1 -309 0 -567 -2 -573 -3 -7
-414 -10 -1392 -10 l-1387 1 -1 1832 c-1 1582 1 1833 13 1835 27 5 320 2 326
-3z m3390 -239 c50 -34 127 -87 172 -118 71 -49 80 -58 69 -72 -11 -12 -850
-1223 -1165 -1680 -36 -53 -129 -186 -205 -298 l-140 -202 -80 -29 c-45 -16
-152 -57 -240 -90 -87 -34 -162 -61 -166 -61 -4 0 -7 118 -7 263 l1 262 115
165 c138 199 123 177 613 885 217 314 425 615 463 670 38 55 76 110 84 121 9
12 22 30 28 40 7 11 59 85 114 166 l102 146 76 -53 c42 -29 117 -81 166 -115z"/>
<path d="M1458 3291 c-2 -5 -26 -35 -55 -67 -28 -33 -125 -145 -216 -250
l-164 -192 -64 59 -64 60 -74 -78 -73 -77 54 -50 c30 -28 94 -88 142 -133 48
-46 92 -83 96 -83 4 0 19 15 33 33 14 17 33 41 44 52 10 11 49 56 87 100 37
44 90 105 116 135 27 30 81 93 120 140 40 47 87 101 104 120 17 19 43 50 58
68 l28 33 -33 27 c-17 15 -47 40 -64 56 -48 42 -71 57 -75 47z"/>
<path d="M1422 2195 c-24 -28 -53 -62 -65 -76 -20 -22 -171 -197 -223 -259
-12 -14 -42 -48 -66 -76 l-45 -51 -64 58 -64 59 -74 -76 -75 -77 105 -99 c57
-54 124 -115 148 -135 l43 -37 20 24 c11 14 34 41 51 60 18 19 72 82 122 140
49 58 92 107 95 110 3 3 30 34 60 70 30 36 57 67 60 70 3 3 30 34 60 70 30 36
69 81 87 100 l33 35 -43 40 c-23 22 -60 54 -82 71 l-40 31 -43 -52z"/>
<path d="M1426 1152 c-21 -26 -60 -72 -86 -102 -26 -30 -108 -126 -183 -212
l-135 -156 -63 59 -64 60 -74 -78 -73 -77 59 -55 c181 -169 227 -211 233 -211
5 0 254 286 425 488 17 20 60 71 97 113 l68 77 -68 58 c-37 33 -73 65 -80 71
-7 7 -14 13 -15 12 -1 0 -19 -21 -41 -47z"/>
</g>
</svg>
